<svg width="34" height="33" viewBox="0 0 34 33" fill="none" xmlns="http://www.w3.org/2000/svg">
<g clip-path="url(#clip0_1_534)">
<path d="M14.1529 30.8731C14.3565 30.887 14.5478 30.9902 14.6877 31.1618C14.8276 31.3333 14.9055 31.5601 14.9055 31.7958C14.9055 32.0316 14.8276 32.2584 14.6877 32.4299C14.5478 32.6014 14.3565 32.7047 14.1529 32.7185C11.6862 32.7178 9.2624 31.9718 7.12194 30.5545C4.98149 29.1372 3.19868 27.0979 1.95026 24.6387C0.701832 22.1794 0.0311566 19.3858 0.00471929 16.5346C-0.021718 13.6834 0.597001 10.8738 1.79954 8.38421C3.00207 5.89463 4.74666 3.8116 6.86034 2.34161C8.97402 0.871621 11.3834 0.0657382 13.8496 0.00385424C16.3158 -0.0580297 18.7531 0.626235 20.92 1.98881C23.0869 3.35138 24.908 5.34495 26.2029 7.77185L26.3717 6.81237C26.3823 6.69101 26.4146 6.57352 26.4666 6.46732C26.5185 6.36111 26.5889 6.2685 26.6733 6.19532C26.7577 6.12214 26.8544 6.06998 26.9571 6.04213C27.0598 6.01429 27.1665 6.01136 27.2702 6.03353C27.374 6.0557 27.4727 6.10249 27.56 6.17095C27.6474 6.23941 27.7215 6.32806 27.7777 6.43129C27.8339 6.53452 27.871 6.6501 27.8867 6.77074C27.9023 6.89138 27.8962 7.01445 27.8686 7.1322L27.3152 10.2825C27.293 10.3954 27.2517 10.5021 27.1938 10.5965C27.1359 10.6909 27.0624 10.7711 26.9775 10.8326C26.8927 10.8941 26.7982 10.9357 26.6995 10.9549C26.6007 10.9741 26.4997 10.9706 26.4021 10.9446L23.7348 10.2345C23.5437 10.1767 23.3796 10.0352 23.2772 9.83996C23.1747 9.64477 23.1419 9.41117 23.1858 9.18855C23.2296 8.96593 23.3466 8.77174 23.5121 8.64703C23.6775 8.52231 23.8784 8.47685 24.0724 8.52026L24.836 8.72495C23.6858 6.57136 22.0685 4.8027 20.1445 3.59435C18.2206 2.386 16.0568 1.77992 13.8678 1.83622C11.6787 1.89251 9.54041 2.60921 7.66486 3.91527C5.78932 5.22132 4.24169 7.07136 3.17542 9.28195C2.10915 11.4925 1.56128 13.9869 1.58613 16.5177C1.61098 19.0485 2.20769 21.5278 3.3171 23.7099C4.4265 25.8919 6.01007 27.7009 7.91078 28.9574C9.81148 30.2139 11.9633 30.8743 14.1529 30.8731ZM19.6176 15.7932C19.6914 15.8609 19.7509 15.9469 19.7919 16.0449C19.8328 16.143 19.8541 16.2504 19.8541 16.3593C19.8541 16.4681 19.8328 16.5756 19.7919 16.6736C19.7509 16.7716 19.6914 16.8577 19.6176 16.9254L18.2618 18.1343C18.1544 18.2299 18.0226 18.2816 17.887 18.2815C17.7515 18.2815 17.6197 18.2296 17.5124 18.1339C17.405 18.0383 17.328 17.9043 17.2934 17.7528C17.2588 17.6013 17.2685 17.4408 17.321 17.2964H15.5502C15.4284 17.5398 15.2605 17.7483 15.0592 17.9063C14.8579 18.0643 14.6283 18.1677 14.3876 18.2088C14.1469 18.2499 13.9013 18.2276 13.669 18.1436C13.4368 18.0596 13.224 17.9161 13.0465 17.7237C12.8689 17.5314 12.7313 17.2952 12.6438 17.0328C12.5563 16.7703 12.5212 16.4884 12.5411 16.2081C12.561 15.9278 12.6354 15.6563 12.7588 15.4139C12.8822 15.1715 13.0514 14.9644 13.2537 14.8081L13.2813 11.4915C13.1557 11.558 13.0142 11.5734 12.88 11.5351C12.7458 11.4968 12.6268 11.4071 12.5424 11.2806C12.4579 11.1541 12.4131 10.9982 12.4151 10.8384C12.4172 10.6787 12.466 10.5244 12.5536 10.4009L13.63 8.85927C13.6853 8.78017 13.7547 8.71579 13.8335 8.67053C13.9123 8.62526 13.9986 8.60019 14.0865 8.59701C14.185 8.59455 14.2825 8.61975 14.3707 8.67045C14.4589 8.72114 14.5351 8.79581 14.5929 8.88806L15.6111 10.4872C15.6892 10.611 15.7305 10.7607 15.7289 10.9139C15.7273 11.0671 15.6829 11.2157 15.6023 11.3373C15.5216 11.4589 15.4091 11.5471 15.2816 11.5887C15.154 11.6304 15.0182 11.6232 14.8945 11.5682L14.8751 14.6994C15.1547 14.8623 15.3873 15.1156 15.5447 15.4286H17.3155C17.2585 15.2829 17.2457 15.1193 17.2792 14.9642C17.3126 14.8091 17.3904 14.6716 17.4998 14.5739C17.6093 14.4762 17.7441 14.4241 17.8824 14.426C18.0207 14.4279 18.1543 14.4836 18.2618 14.5842L19.6176 15.7932ZM22.8106 24.7228L24.2218 29.0053L24.9329 26.6706L24.5842 26.226C24.3241 25.7846 24.4127 25.2665 24.8969 25.193C25.0719 25.1768 25.2477 25.1768 25.4226 25.193C25.6156 25.1789 25.8094 25.1875 26.0009 25.2185C26.4491 25.3337 26.4962 25.8358 26.2776 26.2388L25.929 26.677L26.6401 29.0117L27.9156 24.7292C28.837 25.6887 31.3162 25.8806 32.3427 26.533C33.7483 27.4446 33.7096 28.8998 34.0029 30.5277C31.2 33.758 19.6453 33.9019 16.7206 30.5213C17.0278 28.9222 16.9973 27.4222 18.3974 26.5267C19.6425 25.7239 21.7896 25.7846 22.8245 24.7228H22.8106ZM22.5505 21.8443C22.4297 21.8514 22.3096 21.8181 22.2047 21.7484C22.0554 21.6435 21.9398 21.4852 21.8754 21.2974C21.7232 20.904 21.5987 19.8678 21.9861 19.5704L21.9141 19.516V19.4009C21.9141 19.193 21.8948 18.9403 21.892 18.6748C21.892 17.7154 21.8616 16.5192 21.1643 16.2825L20.8655 16.1802L21.0619 15.9083C21.5783 15.1725 22.1628 14.5043 22.8051 13.9158C23.3868 13.3565 24.0818 12.9768 24.825 12.8124C25.17 12.7506 25.5225 12.7739 25.8592 12.8808C26.1958 12.9878 26.5091 13.1759 26.7784 13.4328C26.9707 13.611 27.1477 13.8103 27.3069 14.0277C27.6168 14.0645 27.9167 14.1757 28.1873 14.3541C28.4579 14.5326 28.6934 14.7743 28.8785 15.064C29.1096 15.4107 29.2824 15.8045 29.3876 16.2249C29.5 16.6515 29.5468 17.0974 29.526 17.5426C29.5036 18.3501 29.211 19.1161 28.7097 19.6791C28.7982 19.6815 28.8852 19.7066 28.9643 19.7527C29.0851 19.8439 29.174 19.9817 29.215 20.1417C29.2561 20.3016 29.2466 20.4732 29.1884 20.6258C29.1137 20.8913 29.0169 21.2015 28.9255 21.4606C28.8176 21.8092 28.6488 21.8763 28.3445 21.838C27.6472 25.3561 23.4332 25.484 22.5505 21.838V21.8443ZM8.35621 6.32303C8.30647 6.23336 8.27299 6.13295 8.25782 6.02789C8.24265 5.92283 8.24609 5.8153 8.26794 5.71182C8.28978 5.60834 8.32958 5.51106 8.38491 5.42589C8.44025 5.34072 8.50997 5.26942 8.58985 5.21631C8.66973 5.16321 8.75811 5.12941 8.84963 5.11696C8.94115 5.10451 9.0339 5.11367 9.12227 5.14388C9.21063 5.17409 9.29277 5.22473 9.3637 5.29273C9.43463 5.36072 9.49288 5.44466 9.53492 5.53945L10.0413 6.5565C10.133 6.73845 10.1584 6.95507 10.112 7.1587C10.0656 7.36233 9.95103 7.53629 9.79362 7.64232C9.63622 7.74835 9.44882 7.77776 9.27265 7.72408C9.09648 7.6704 8.94598 7.53802 8.85425 7.35608L8.35621 6.32303ZM4.78964 11.0213C4.64312 10.9109 4.53882 10.7397 4.49822 10.543C4.45762 10.3463 4.48381 10.1391 4.5714 9.96408C4.659 9.78906 4.80131 9.65952 4.96905 9.60214C5.13679 9.54476 5.31718 9.56391 5.47307 9.65565L6.36402 10.2345C6.44305 10.2852 6.51256 10.3536 6.56849 10.4356C6.62442 10.5177 6.66566 10.6118 6.68979 10.7124C6.71393 10.8131 6.72048 10.9183 6.70906 11.022C6.69764 11.1256 6.66849 11.2255 6.62329 11.316C6.5781 11.4065 6.51777 11.4856 6.44583 11.5489C6.3739 11.6121 6.29178 11.6581 6.20429 11.6843C6.11679 11.7104 6.02567 11.7162 5.93623 11.7012C5.84679 11.6862 5.76083 11.6508 5.68335 11.597L4.8007 11.0117L4.78964 11.0213ZM3.73544 17.1461C3.55491 17.1461 3.38178 17.0632 3.25414 16.9156C3.12649 16.7681 3.05477 16.5679 3.05477 16.3593C3.05477 16.1506 3.12649 15.9505 3.25414 15.8029C3.38178 15.6554 3.55491 15.5725 3.73544 15.5725H4.75367C4.93419 15.5725 5.10732 15.6554 5.23497 15.8029C5.36262 15.9505 5.43433 16.1506 5.43433 16.3593C5.43433 16.5679 5.36262 16.7681 5.23497 16.9156C5.10732 17.0632 4.93419 17.1461 4.75367 17.1461H3.73544ZM5.4703 23.0597C5.31471 23.1519 5.1344 23.1713 4.96674 23.114C4.79908 23.0567 4.65693 22.927 4.56977 22.7518C4.4826 22.5766 4.4571 22.3694 4.49855 22.173C4.54 21.9767 4.64522 21.8063 4.7924 21.6972L5.67229 21.1087C5.74968 21.0562 5.83527 21.0219 5.92415 21.0076C6.01304 20.9933 6.10348 20.9994 6.19032 21.0256C6.27717 21.0517 6.35871 21.0974 6.43029 21.1599C6.50187 21.2225 6.56209 21.3007 6.60751 21.3902C6.65293 21.4797 6.68266 21.5786 6.695 21.6813C6.70735 21.7841 6.70206 21.8886 6.67945 21.989C6.65684 22.0894 6.61735 22.1836 6.56323 22.2664C6.5091 22.3491 6.44141 22.4187 6.36402 22.4712L5.4703 23.0597ZM18.7709 5.53625C18.8615 5.35557 19.0106 5.22391 19.1852 5.17023C19.3598 5.11655 19.5457 5.14524 19.702 5.25C19.8583 5.35476 19.9722 5.527 20.0186 5.72883C20.0651 5.93066 20.0403 6.14555 19.9496 6.32623L19.4405 7.35608C19.3951 7.44554 19.3349 7.52378 19.2633 7.58634C19.1917 7.6489 19.1102 7.69455 19.0233 7.72069C18.9365 7.74682 18.846 7.75293 18.7572 7.73866C18.6683 7.72439 18.5827 7.69003 18.5053 7.63753C18.4279 7.58503 18.3602 7.51542 18.3061 7.43268C18.252 7.34994 18.2125 7.25569 18.1899 7.1553C18.1672 7.05492 18.162 6.95038 18.1743 6.84763C18.1867 6.74489 18.2164 6.64596 18.2618 6.5565L18.7709 5.53625ZM9.53492 27.1855C9.44465 27.3666 9.29585 27.4988 9.12124 27.5531C8.94663 27.6074 8.76052 27.5793 8.60385 27.4749C8.44717 27.3706 8.33277 27.1986 8.28581 26.9968C8.23885 26.7949 8.26318 26.5798 8.35344 26.3987L8.85425 25.3721C8.89913 25.2826 8.95881 25.2042 9.02988 25.1414C9.10096 25.0786 9.18204 25.0326 9.2685 25.006C9.35496 24.9795 9.4451 24.9728 9.53378 24.9865C9.62245 25.0002 9.70793 25.0339 9.78532 25.0858C9.86272 25.1377 9.93052 25.2067 9.98485 25.2888C10.0392 25.371 10.079 25.4647 10.102 25.5646C10.125 25.6646 10.1307 25.7688 10.1189 25.8713C10.107 25.9738 10.0778 26.0726 10.033 26.162L9.53492 27.1855ZM13.4723 4.3177C13.4833 4.11812 13.5596 3.93088 13.6858 3.79404C13.812 3.65721 13.9785 3.58105 14.1515 3.58105C14.3245 3.58105 14.4911 3.65721 14.6172 3.79404C14.7434 3.93088 14.8198 4.11812 14.8308 4.3177V5.49467C14.8367 5.602 14.8236 5.70959 14.7921 5.8108C14.7607 5.91201 14.7116 6.0047 14.6479 6.08313C14.5843 6.16156 14.5074 6.22407 14.422 6.26681C14.3366 6.30954 14.2446 6.33159 14.1515 6.33159C14.0585 6.33159 13.9664 6.30954 13.8811 6.26681C13.7957 6.22407 13.7188 6.16156 13.6551 6.08313C13.5915 6.0047 13.5424 5.91201 13.5109 5.8108C13.4795 5.70959 13.4663 5.602 13.4723 5.49467V4.3177ZM14.8336 28.3977C14.8336 28.6063 14.7619 28.8064 14.6342 28.954C14.5066 29.1015 14.3334 29.1844 14.1529 29.1844C13.9724 29.1844 13.7993 29.1015 13.6716 28.954C13.544 28.8064 13.4723 28.6063 13.4723 28.3977V27.2239C13.4723 27.0152 13.544 26.8151 13.6716 26.6675C13.7993 26.52 13.9724 26.4371 14.1529 26.4371C14.3334 26.4371 14.5066 26.52 14.6342 26.6675C14.7619 26.8151 14.8336 27.0152 14.8336 27.2239V28.3977Z" fill="#737B7B"/>
</g>
<defs>
<clipPath id="clip0_1_534">
<rect width="34" height="33" fill="white"/>
</clipPath>
</defs>
</svg>
