<svg width="37" height="45" viewBox="0 0 37 45" fill="none" xmlns="http://www.w3.org/2000/svg">
<path fill-rule="evenodd" clip-rule="evenodd" d="M1.90585 0H29.3525C30.3943 0 31.2584 1.37204 31.2584 3.03091V18.8835C30.6682 18.544 30.045 18.3098 29.4037 18.1903V5.69372H1.83058V31.7051H20.2056C20.2297 32.6947 20.32 33.6508 20.4736 34.5735H1.90585C0.864106 34.5735 0 33.2014 0 31.5426V3.03091C0 1.37204 0.864106 0 1.90585 0ZM28.8617 21.6849C30.6291 21.6849 32.2309 22.8275 33.393 24.6632C34.5522 26.5086 35.2688 29.0423 35.2688 31.8581C35.2688 33.909 34.8834 35.826 34.227 37.4227L37 42.2225L35.0881 45L32.4145 40.3293C31.3999 41.405 30.1775 42.0312 28.8678 42.0312C27.1004 42.0312 25.4987 40.8887 24.3395 39.0529C23.1773 37.2076 22.4637 34.6739 22.4637 31.8629C22.4637 29.0566 23.1833 26.5133 24.3395 24.668C25.4926 22.8179 27.0914 21.6849 28.8617 21.6849ZM32.267 26.4464C31.3969 25.0648 30.1895 24.2043 28.8617 24.2043C27.534 24.2043 26.3266 25.0648 25.4565 26.4464C24.5864 27.828 24.0444 29.745 24.0444 31.8533C24.0444 33.9615 24.5864 35.8786 25.4565 37.2602C26.3266 38.6418 27.534 39.5023 28.8617 39.5023C30.1895 39.5023 31.3969 38.6418 32.267 37.2602C33.1371 35.8786 33.6791 33.9615 33.6791 31.8533C33.6791 29.745 33.1401 27.8328 32.267 26.4464ZM17.7789 25.5668H20.9975C20.8409 26.0879 20.7054 26.6281 20.594 27.1826H17.7819V25.5668H17.7789ZM17.7789 21.4459H22.9395C22.5932 21.9383 22.2711 22.4833 21.982 23.0617H17.7789V21.4459ZM23.4272 14.1363H24.8513C24.9266 14.1363 24.9778 14.2176 24.9778 14.3371V18.7783C24.9778 18.8978 24.9266 18.9791 24.8513 18.9791H23.4272C23.3519 18.9791 23.3008 18.8978 23.3008 18.7783V14.3371C23.2977 14.2558 23.3489 14.1363 23.4272 14.1363ZM17.9325 11.4305H19.3566C19.4319 11.4305 19.483 11.5117 19.483 11.636V18.8261C19.483 18.9456 19.4319 19.0269 19.3566 19.0269H17.9325C17.8572 19.0269 17.806 18.9456 17.806 18.8261V11.6313C17.7789 11.5117 17.8572 11.4305 17.9325 11.4305ZM20.6783 9.89589H22.1025C22.1777 9.89589 22.2289 9.97716 22.2289 10.0967V18.8213C22.2289 18.9408 22.1777 19.0221 22.1025 19.0221H20.6783C20.6031 19.0221 20.5519 18.9408 20.5519 18.8213V10.0967C20.5519 9.97716 20.6031 9.89589 20.6783 9.89589ZM9.99593 19.4667L14.3195 19.5862C14.3195 22.0482 13.5577 24.3095 12.2842 25.6863L9.99593 19.4667ZM9.56237 18.2954L9.51119 10.2975V9.77159L9.84238 9.80984C10.2488 9.84808 10.6553 9.97238 11.0377 10.1349C11.4201 10.2975 11.7753 10.5365 12.1306 10.8233C13.8859 12.2766 15.1053 15.1833 15.2077 18.4962L15.2318 19.0221H14.9006L9.89055 18.7783H9.61055L9.56237 18.2954ZM10.1224 10.7851L10.1736 17.8126L14.5754 18.0134C14.3978 15.2645 13.3289 12.8838 11.8536 11.6313C11.5495 11.3874 11.2183 11.1867 10.8871 11.0241C10.6071 10.9476 10.3783 10.8664 10.1224 10.7851ZM9.13183 19.0651L11.5977 25.8488C10.836 26.5372 9.99593 26.9006 9.13183 26.9006C6.41004 26.9006 4.19709 23.3868 4.19709 19.0651C4.19709 14.863 6.28359 11.3922 8.92709 11.2297L9.13183 19.0651Z" fill="#737B7B"/>
</svg>
