<svg width="33" height="34" viewBox="0 0 33 34" fill="none" xmlns="http://www.w3.org/2000/svg">
<g clip-path="url(#clip0_1_532)">
<path d="M7.34991 11.1467L21.5757 11.148C22.8017 11.1447 22.7894 12.4635 21.5757 12.4635H7.34991C6.12186 12.4635 6.13514 11.1467 7.34991 11.1467ZM17.8476 32.5333C18.6455 32.4649 19.2759 32.9711 19.0051 33.4633C18.8641 33.7128 18.5362 33.8885 18.1296 33.9237C17.1906 34.0013 16.2466 34.0199 15.3016 33.9788C11.8248 33.8269 8.69749 32.8484 6.37932 31.3432C3.85272 29.7026 2.28854 27.4359 2.28854 24.931C2.28854 22.4281 3.85272 20.1607 6.37932 18.5195C8.90693 16.8789 12.399 15.8633 16.2548 15.8633C17.5922 15.8633 18.8938 15.988 20.1372 16.2215C21.168 16.4146 22.1478 16.6826 23.0632 17.0143L22.7874 16.5472C22.5575 16.1552 22.8609 15.7167 23.4647 15.5668C24.0675 15.4175 24.7449 15.6139 24.9737 16.0066L26.1374 17.9828C26.1824 18.0604 26.2069 18.14 26.213 18.2176C26.305 18.5865 25.9648 18.9513 25.3998 19.0628L22.2837 19.6817C21.6666 19.8031 21.0148 19.5769 20.8278 19.1769C20.6419 18.7768 20.9902 18.3536 21.6063 18.2322L21.8628 18.1811C21.1302 17.9231 20.3517 17.7154 19.5385 17.5629C18.5055 17.3692 17.4042 17.2657 16.2548 17.2657C12.9946 17.2657 10.042 18.1234 7.9057 19.5105C5.76836 20.8977 4.44734 22.8148 4.44734 24.931C4.44734 27.0485 5.76836 28.965 7.9057 30.3528C9.84279 31.6099 12.448 32.4324 15.3455 32.5751C16.1751 32.6169 17.0272 32.6029 17.8476 32.5333ZM14.1175 21.2433C14.1175 20.8565 14.5997 20.5421 15.1963 20.5421C15.793 20.5421 16.2742 20.8565 16.2742 21.2433V25.5094L20.7716 26.7924C21.3162 26.9483 21.5634 27.3616 21.3243 27.7152C21.0842 28.0688 20.4488 28.2293 19.9032 28.0741L14.8163 26.6219C14.4076 26.5224 14.1175 26.2657 14.1175 25.9659V21.2433ZM21.6084 31.7843C20.741 32.0729 20.8554 32.9008 21.7923 33.0819C22.063 33.1323 22.3327 33.1164 22.5851 33.0348C23.2808 32.8072 23.95 32.5406 24.5763 32.2394C24.8828 32.0915 25.0412 31.858 25.0085 31.6112C24.9247 31.0665 23.9694 30.7899 23.29 31.1143C22.7598 31.3682 22.1972 31.5924 21.6084 31.7843ZM26.0107 29.2728C25.5193 29.7484 26.072 30.3886 26.9558 30.364C27.3001 30.3514 27.6086 30.242 27.8038 30.0542C28.24 29.633 28.618 29.1918 28.9419 28.7295C29.2535 28.2737 28.7672 27.7623 27.9979 27.7404C27.5565 27.7311 27.1571 27.891 26.9752 28.1523C26.7004 28.5444 26.3816 28.9159 26.0107 29.2728ZM27.9948 25.6786C27.956 25.9539 28.1603 26.212 28.5271 26.3513C29.2157 26.606 30.0637 26.3208 30.1434 25.8113C30.218 25.3051 30.2292 24.8036 30.1761 24.2955C30.1495 24.052 29.9309 23.8371 29.5989 23.7236C28.85 23.4716 27.9632 23.8484 28.0224 24.3943C28.0674 24.8248 28.0572 25.2487 27.9948 25.6786ZM27.0998 21.91C27.342 22.2708 27.9918 22.4347 28.5445 22.2689C29.0758 22.1096 29.3138 21.705 29.0839 21.3561C28.7762 20.8908 28.4099 20.4428 27.9887 20.0167C27.4595 19.4887 26.2141 19.6426 26.022 20.2602C25.9689 20.4419 26.0189 20.619 26.1742 20.7756C26.5318 21.1378 26.8414 21.5139 27.0998 21.91ZM21.3826 2.83659L28.8489 7.3774H21.3826V2.83659ZM33 8.26699C33 7.89948 32.5801 7.56646 32.0948 7.24937L21.0975 0.297192C20.8707 0.112774 20.5213 0 20.1392 0H2.2344C0.998173 0 0 0.647455 0 1.45014V20.2044C0.661022 19.3076 1.50288 18.4737 2.49594 17.7227V1.61267H18.8856V8.18407C18.8856 8.62986 19.4424 8.99736 20.1392 8.99736H30.5051V18.0206C31.7076 18.6037 32.3574 19.5291 33 20.3782V8.26699ZM7.34991 6.49511H14.1215C15.3486 6.49511 15.3333 7.81059 14.1215 7.81059H7.34991C6.12186 7.81059 6.13412 6.49511 7.34991 6.49511Z" fill="#737B7B"/>
</g>
<defs>
<clipPath id="clip0_1_532">
<rect width="33" height="34" fill="white"/>
</clipPath>
</defs>
</svg>
